<svg width="100" height="20" viewBox="0 0 100 20" fill="none" xmlns="http://www.w3.org/2000/svg">
<g clip-path="url(#clip0)">
<path d="M8.23024 9.78698C8.23024 7.98942 6.96783 6.72604 5.41714 6.72604C3.86644 6.72604 2.60403 8.01072 2.60403 9.78698C2.60403 11.5419 3.86644 12.8479 5.41714 12.8479C6.96942 12.8463 8.23024 11.5845 8.23024 9.78698ZM8.25242 15.1371V13.7459C7.48737 14.7094 6.3485 15.3075 4.98472 15.3075C2.15102 15.3075 0 12.9528 0 9.78698C0 6.64083 2.23338 4.24517 5.04807 4.24517C6.37226 4.24517 7.48895 4.84491 8.25401 5.78547V4.43689H10.7978V15.1371H8.25242Z" fill="black"/>
<path d="M23.1543 12.7611C22.2641 12.7611 22.017 12.4186 22.017 11.5206V6.77028H23.6517V4.43689H22.017V1.82657H19.4098V4.43689H16.0518V3.78636C16.0518 2.88676 16.3829 2.54429 17.2936 2.54429H17.8655V0.468157H16.611C14.4599 0.468157 13.4462 1.1957 13.4462 3.42095V4.43525H11.9985V6.76865H13.4462V15.1354H16.0534V6.76865H19.4114V12.0122C19.4114 14.1949 20.2176 15.1371 22.3275 15.1371H23.6723V12.7611H23.1543Z" fill="black"/>
<path d="M32.5044 8.82347C32.3191 7.43228 31.2214 6.59822 29.94 6.59822C28.657 6.59822 27.602 7.41098 27.3344 8.82347H32.5044ZM27.3122 10.4932C27.4991 12.0761 28.5952 12.9757 29.9811 12.9757C31.0772 12.9757 31.9262 12.4399 32.422 11.5845H35.091C34.4701 13.8524 32.5044 15.3075 29.9194 15.3075C26.7958 15.3075 24.6036 13.0396 24.6036 9.80828C24.6036 6.57692 26.9209 4.24353 29.9827 4.24353C33.0651 4.24353 35.2985 6.59823 35.2985 9.80828C35.2985 10.0442 35.2779 10.2786 35.2367 10.4932H27.3122Z" fill="black"/>
<path d="M51.8746 9.78698C51.8746 8.05332 50.6122 6.72604 49.0615 6.72604C47.5108 6.72604 46.2484 8.01072 46.2484 9.78698C46.2484 11.5419 47.5108 12.8479 49.0615 12.8479C50.6122 12.8463 51.8746 11.5206 51.8746 9.78698ZM43.6824 4.43689H46.2262V5.82808C46.9913 4.84327 48.1286 4.24517 49.4939 4.24517C52.2864 4.24517 54.4787 6.62117 54.4787 9.76568C54.4787 12.9118 52.2453 15.3091 49.4322 15.3091C48.1286 15.3091 47.0531 14.7733 46.3086 13.8753V19.54H43.6824V4.43689Z" fill="black"/>
<path d="M63.6482 9.78698C63.6482 7.98942 62.3873 6.72604 60.8351 6.72604C59.2844 6.72604 58.022 8.01072 58.022 9.78698C58.022 11.5419 59.2844 12.8479 60.8351 12.8479C62.3873 12.8463 63.6482 11.5845 63.6482 9.78698ZM63.6703 15.1371V13.7459C62.9053 14.7094 61.7664 15.3075 60.4026 15.3075C57.5689 15.3075 55.4179 12.9528 55.4179 9.78698C55.4179 6.64083 57.6513 4.24517 60.4644 4.24517C61.7886 4.24517 62.9053 4.84491 63.6703 5.78547V4.43689H66.2142V15.1371H63.6703Z" fill="black"/>
<path d="M39.0968 5.48561C39.0968 5.48561 39.7447 4.24517 41.3302 4.24517C42.0081 4.24517 42.4469 4.48605 42.4469 4.48605V7.21599C42.4469 7.21599 41.4902 6.60478 40.6111 6.72768C39.732 6.85058 39.176 7.68627 39.1792 8.80381V15.1387H36.553V4.43853H39.0968V5.48561Z" fill="black"/>
<path d="M78.0955 4.43689L71.6725 19.5056H68.9639L71.4856 13.6803L67.2216 4.43689H70.2913L72.786 10.6128L75.3457 4.43689H78.0955Z" fill="black"/>
<path d="M98.5982 4.19437L92.2307 0.39278C90.3616 -0.723119 88.0253 0.671346 88.0253 2.90478V3.29477C88.0253 3.64708 88.2074 3.97316 88.5021 4.14849L89.7043 4.86621C90.0575 5.07759 90.4978 4.81377 90.4978 4.39265V3.42259C90.4978 2.93756 91.0047 2.63441 91.4102 2.87693L96.9255 6.17055C97.331 6.41306 97.331 7.01935 96.9255 7.26023L91.4102 10.5539C91.0047 10.7964 90.4978 10.4932 90.4978 10.0082V9.49203C90.4978 7.25859 88.1615 5.86249 86.2908 6.98003L79.9233 10.7816C78.0543 11.8975 78.0543 14.6897 79.9233 15.8056L86.2908 19.6072C88.1599 20.7231 90.4978 19.3287 90.4978 17.0952V16.7052C90.4978 16.3529 90.3157 16.0285 90.0211 15.8515L88.8188 15.1322C88.4656 14.9208 88.0253 15.1846 88.0253 15.6057V16.5758C88.0253 17.0608 87.5184 17.364 87.1129 17.1214L81.5976 13.8278C81.1921 13.5853 81.1921 12.979 81.5976 12.7365L87.1129 9.44287C87.5184 9.20035 88.0253 9.5035 88.0253 9.98853V10.5047C88.0253 12.7381 90.3616 14.1342 92.2307 13.0167L98.5982 9.2151C100.467 8.10248 100.467 5.31027 98.5982 4.19437Z" fill="black"/>
</g>
<defs>
<clipPath id="clip0">
<rect width="100" height="20" fill="white"/>
</clipPath>
</defs>
</svg>
