<svg width="12" height="12" viewBox="0 0 12 12" fill="none" xmlns="http://www.w3.org/2000/svg">
<path fill-rule="evenodd" clip-rule="evenodd" d="M11.1021 1.32208C11.395 1.02918 11.395 0.554311 11.1021 0.261418C10.8092 -0.0314753 10.3343 -0.0314753 10.0414 0.261418L5.6817 4.62116L1.32196 0.261418C1.02906 -0.0314753 0.554189 -0.0314753 0.261296 0.261418C-0.0315973 0.554311 -0.0315973 1.02918 0.261296 1.32208L4.62104 5.68182L0.261296 10.0416C-0.0315973 10.3345 -0.0315973 10.8093 0.261296 11.1022C0.554189 11.3951 1.02906 11.3951 1.32196 11.1022L5.6817 6.74248L10.0414 11.1022C10.3343 11.3951 10.8092 11.3951 11.1021 11.1022C11.395 10.8093 11.395 10.3345 11.1021 10.0416L6.74236 5.68182L11.1021 1.32208Z" fill="#1A1A25"/>
</svg>
