<svg width="40" height="24" viewBox="0 0 40 24" fill="none" xmlns="http://www.w3.org/2000/svg">
<path d="M1 15.4942C2.11448 11.336 4.56985 7.66165 7.98531 5.04105C11.4008 2.42044 15.5855 1 19.8905 1C24.1955 1 28.3802 2.42044 31.7957 5.04105C35.2111 7.66165 37.6665 11.336 38.781 15.4942" stroke="black" stroke-miterlimit="10" stroke-linecap="round"/>
<path d="M19.8882 1.005V20.5576V23" stroke="black" stroke-width="0.75" stroke-miterlimit="10" stroke-linecap="round"/>
<path d="M2.95667 10.7791L19.8882 20.5577L22.0052 21.7765" stroke="black" stroke-width="0.75" stroke-miterlimit="10" stroke-linecap="round"/>
<path d="M1.00458 15.4943L19.8882 20.5577L22.2527 21.19" stroke="black" stroke-miterlimit="10" stroke-linecap="round"/>
<path d="M6.06342 6.73285L19.8882 20.5576L21.6157 22.2851" stroke="black" stroke-width="0.75" stroke-miterlimit="10" stroke-linecap="round"/>
<path d="M10.1142 3.6261L19.8882 20.5577L21.1117 22.6701" stroke="black" stroke-width="0.75" stroke-miterlimit="10" stroke-linecap="round"/>
<path d="M14.8294 1.66949L19.8883 20.5577L20.5206 22.9176" stroke="black" stroke-width="0.75" stroke-miterlimit="10" stroke-linecap="round"/>
<path d="M36.8198 10.7791L19.8882 20.5577L17.7712 21.7765" stroke="black" stroke-width="0.75" stroke-miterlimit="10" stroke-linecap="round"/>
<path d="M38.7764 15.4943L19.8882 20.5577L17.5283 21.19" stroke="black" stroke-miterlimit="10" stroke-linecap="round"/>
<path d="M24.9516 1.66949L19.8882 20.5577L19.2559 22.9176" stroke="black" stroke-width="0.75" stroke-miterlimit="10" stroke-linecap="round"/>
<path d="M29.6668 3.6261L19.8882 20.5577L18.6693 22.6701" stroke="black" stroke-width="0.75" stroke-miterlimit="10" stroke-linecap="round"/>
<path d="M33.7129 6.73285L19.8882 20.5576L18.1606 22.2851" stroke="black" stroke-width="0.75" stroke-miterlimit="10" stroke-linecap="round"/>
<path d="M11.6263 18.3398C12.1134 16.5203 13.1874 14.9123 14.6816 13.7655C16.1759 12.6186 18.0069 11.9969 19.8905 11.9969C21.7741 11.9969 23.6051 12.6186 25.0994 13.7655C26.5936 14.9123 27.6676 16.5203 28.1547 18.3398" stroke="black" stroke-miterlimit="10" stroke-linecap="round"/>
</svg>
